<?xml version="1.0" encoding="UTF-8" standalone="no"?>
<svg
   height="2048"
   preserveAspectRatio="none"
   style="display:block"
   version="1.1"
   viewBox="0 0 2048 2048"
   width="2048"
   id="svg7"
   sodipodi:docname="onkruid.svg"
   xml:space="preserve"
   inkscape:version="1.3 (0e150ed6c4, 2023-07-21)"
   xmlns:inkscape="http://www.inkscape.org/namespaces/inkscape"
   xmlns:sodipodi="http://sodipodi.sourceforge.net/DTD/sodipodi-0.dtd"
   xmlns="http://www.w3.org/2000/svg"
   xmlns:svg="http://www.w3.org/2000/svg"><defs
     id="defs7" /><sodipodi:namedview
     id="namedview7"
     pagecolor="#ffffff"
     bordercolor="#000000"
     borderopacity="0.25"
     inkscape:showpageshadow="2"
     inkscape:pageopacity="0.0"
     inkscape:pagecheckerboard="0"
     inkscape:deskcolor="#d1d1d1"
     inkscape:zoom="0.20043946"
     inkscape:cx="351.72715"
     inkscape:cy="1294.6553"
     inkscape:window-width="1920"
     inkscape:window-height="1017"
     inkscape:window-x="-8"
     inkscape:window-y="-8"
     inkscape:window-maximized="1"
     inkscape:current-layer="g55" /><metadata
     id="metadata7"><recraft-signature>{&quot;signed_by&quot;: &quot;recraft&quot;, &quot;signature_b64&quot;: &quot;rFR+jfJave8Q2Zo5aXMp6OGYJgksQUM9Jh8HLOJNb+rJToYJs126y2FeZ7dK+vruQ/K6I2MMPACmyiGSgSZQBw==&quot;, &quot;signing_algo&quot;: &quot;Ed25519&quot;, &quot;generation_timestamp&quot;: 1784272530, &quot;identifier&quot;: &quot;6c3a7308-ce38-4c96-a68f-0ceb4b4d57e8&quot;}</recraft-signature></metadata><ellipse
     style="display:inline;opacity:0.99;fill:#4be16e;fill-opacity:1;stroke-width:7.55906;stroke-linecap:round"
     id="path8"
     cx="1024"
     cy="1024"
     rx="876.65399"
     ry="876.65393" /><g
     inkscape:groupmode="layer"
     id="layer3"
     inkscape:label="Layer 3"><g
       id="g55"
       transform="matrix(0.86920479,0,0,0.90834175,148.4964,88.554193)"
       style="stroke-width:1.12542"><g
         id="g56"
         transform="translate(112.38005,14.478182)"><path
           style="display:inline;opacity:1;fill:none;stroke:#1c396a;stroke-width:90.0335;stroke-linecap:round;stroke-linejoin:round;stroke-dasharray:none;stroke-opacity:1"
           d="m 587.14133,1079.9189 c 32.5852,138.7427 326.39631,460.95 410.66619,573.9471 0,0 -159.6492,-384.1559 32.42878,-758.33375"
           id="path47"
           sodipodi:nodetypes="ccc" /><path
           style="opacity:1;fill:none;stroke:#1c396a;stroke-width:90.0335;stroke-linecap:round;stroke-linejoin:round;stroke-dasharray:none;stroke-opacity:1"
           d="m 1010.2801,1658.855 c 0,0 7.4836,-496.4092 274.3971,-548.7941 0,0 -93.4399,426.513 -221.2868,570.2122"
           id="path48"
           sodipodi:nodetypes="ccc" /><path
           style="opacity:1;fill:none;stroke:#1c396a;stroke-width:90.0335;stroke-linecap:round;stroke-linejoin:round;stroke-dasharray:none;stroke-opacity:1"
           d="m 1173.4085,770.04636 c 0,0 64.313,163.61702 156.7938,73.44689 73.3943,-71.5606 -68.0193,-157.47983 -68.0193,-157.47983 m -6.5031,-7.99514 c 0,0 164.1751,50.17363 153.4567,-80.59116 -8.5064,-103.77714 -161.8318,-43.35965 -161.8318,-43.35965 m -10.1177,0.25691 c 0,0 140.41,-101.05151 34.5637,-173.94243 -84.0016,-57.84739 -133.7818,103.41123 -133.7818,103.41123 m -6.1133,8.3155 c 0,0 10.9131,-176.1828 -110.3566,-136.31149 -96.24181,31.64264 -4.9912,172.31134 -4.9912,172.31134 m 2.4943,10.11236 c 0,0 -126.80128,-118.64486 -172.17598,3.96478 -36.01006,97.3051 127.55776,111.45749 127.55776,111.45749 m 9.2238,4.29441 c 0,0 -169.03191,28.23508 -104.34337,141.25547 51.33798,89.69487 164.05309,-33.3261 164.05309,-33.3261 m 9.0075,-4.75734 c 0,0 -83.97802,153.85345 42.062,172.17793 100.0275,14.54255 77.0131,-153.01447 77.0131,-153.01447"
           id="path50"
           sodipodi:nodetypes="csc" /><path
           style="opacity:1;fill:none;stroke:#1c396a;stroke-width:90.0335;stroke-linecap:round;stroke-linejoin:round;stroke-dasharray:none;stroke-opacity:1"
           d="M 921.18795,1585.0422 C 774.283,1528.8423 669.7789,1352.2979 550.3394,1416.2823 c -34.89178,18.6917 -30.6364,79.9409 -12.71411,114.1468 29.46265,56.2314 107.64589,75.3101 169.63953,96.2305 82.3193,27.7794 199.57029,53.8018 259.19302,35.7018"
           id="path53"
           sodipodi:nodetypes="caaac" /><path
           style="opacity:1;fill:none;stroke:#1c396a;stroke-width:90.0335;stroke-linecap:round;stroke-linejoin:round;stroke-dasharray:none;stroke-opacity:1"
           d="M 577.60352,1044.3609 C 454.60851,1033.085 447.14892,917.27853 400.80639,813.20507 c -24.552,-80.80337 -54.3891,-240.62975 91.67282,-232.00056 104.18728,13.4619 115.78488,114.10901 130.97221,187.93668 24.38782,98.99672 34.43777,213.75732 -45.8479,296.23981"
           id="path55"
           sodipodi:nodetypes="ccccc" /></g></g></g></svg>
